<?xml version="1.0" encoding="utf-8"?>
<!-- Generator: Adobe Illustrator 18.0.0, SVG Export Plug-In . SVG Version: 6.00 Build 0)  -->
<!DOCTYPE svg PUBLIC "-//W3C//DTD SVG 1.1//EN" "http://www.w3.org/Graphics/SVG/1.1/DTD/svg11.dtd">
<svg version="1.1" id="Capa_1" xmlns="http://www.w3.org/2000/svg" xmlns:xlink="http://www.w3.org/1999/xlink" x="0px" y="0px"
	 viewBox="22.7 0 147.6 193" enable-background="new 22.7 0 147.6 193" xml:space="preserve">
<g>
	<g>
		<path fill="#FFFFFF" d="M169.3,89.2c-6.8-1.8-15.1-0.6-22.1-0.5c-8.4,0.1-17,0.6-25.3,2.4c0,0,0,0,0,0c-0.1-0.1-0.2-0.2-0.2-0.3
			c-0.9-12-1.1-24-1.1-36c0-0.1,0-0.2,0-0.3c-0.1-17.2,0.2-34.5-0.8-51.7c0-0.2-0.1-0.4-0.2-0.5c-0.2-0.7-0.7-1.3-1.7-1.3
			C101.9,1.5,86,0.4,70.1,0.7c-0.6-1.1-2.5-0.9-2.6,0.3c-0.8,0.5-0.7,1.7,0.2,2.1C70.2,24.6,67,46.4,67.3,68c-0.2,0.1-0.3,0.4,0,0.5
			c0,0,0,0,0.1,0c0.2,8.1,0.8,16.2,2.5,24.2c-0.1,0-0.1-0.1-0.3-0.1c-0.2,0-0.3,0-0.5-0.1c0,0,0,0,0,0c0,0-0.1,0-0.1,0
			c-14.3-1.3-31.6-7.3-45.7-2.8c-0.6,0.2-0.8,0.9-0.4,1.4c0.1,0.1,0.1,0.1,0.2,0.2c0.1,0.1,0.3,0.2,0.4,0.2
			c-0.2,0.2-0.3,0.5-0.1,0.9c19.8,35.2,46,69.9,73,100.1c0.9,1,2,0.5,2.6-0.3c21.3-14.2,32.1-37.1,46-57.8
			c8.6-12.9,19.5-27.6,25.3-42.1c0.2-0.4,0.1-0.7-0.1-1C170.6,90.6,170.3,89.4,169.3,89.2z M73.6,34c0.1-2.6,0.1-5.2,0-7.8
			c11.5,15.4,29.6,25.5,43.2,39c0.1,2.8,0.1,5.5,0.2,8.3C105,58.5,88,46.7,73.6,34z M117.1,75.6c0,0.7,0.1,1.5,0.2,2.2
			C105.8,63.4,87.4,53.6,73.5,42c-0.1-0.1-0.2-0.1-0.3-0.1c0.1-2.3,0.2-4.5,0.3-6.8C87.8,48.9,102.4,62.4,117.1,75.6z M100.8,48.8
			C91.2,41.5,81,34.5,73.6,24.9c0,0,0,0,0,0c-0.1-1.8-0.1-3.6-0.3-5.4c12.4,15.1,27.7,27.8,43.4,39.2c0,1.3,0,2.6,0,3.9
			C112.7,57,106,52.8,100.8,48.8z M116.6,52.6c0,1.3,0,2.6,0,4c-15.4-11.8-30.3-24-43.5-38.3c-0.2-2.2-0.4-4.3-0.7-6.4
			C84.7,27.6,101.4,39.9,116.6,52.6z M72.3,11.2c-0.3-2-0.7-4-1.2-6.1c9.4,8.7,19.7,16.5,28.9,25.5c4.2,4.1,8.9,8.1,13.4,11.9
			c1.1,0.9,2,2.4,3.2,3.2c0,1.5,0,3,0,4.5C102.7,36.4,85.1,26.4,72.3,11.2z M73.2,42.9c14.4,13,30.4,23.6,44.2,37.3
			c0.1,2,0.2,4,0.4,6c-13.1-15-30.4-25.8-44.8-39.5C73.1,45.4,73.2,44.2,73.2,42.9z M117.3,4.6c0,1.8-0.1,3.6-0.1,5.4
			c-2.7-2.2-6-3.8-9.2-5.3C111.1,4.7,114.2,4.7,117.3,4.6z M105.3,4.6C105.3,4.7,105.3,4.7,105.3,4.6c4.2,2.2,7.9,4.8,11.9,7.2
			c0,1,0,2-0.1,3c-1.1-0.5-2.3-1.3-2.8-1.6c-2-1.2-4-2.5-5.9-3.8c-2.4-1.6-4.7-3.2-7-4.9C102.7,4.6,104,4.6,105.3,4.6z M91,4.3
			C91.1,4.4,91,4.4,91,4.3c4.8,2.5,9.2,5.7,13.5,8.9c3.7,2.7,7.4,6.3,11.7,8c0.5,0.2,1-0.6,0.5-0.9c-7.3-5.9-16-12-24.6-16
			c2.3,0.1,4.7,0.1,7,0.2c3.9,2.7,7.6,5.5,11.5,8.2c1.2,0.8,4.1,3.3,6.4,3.7c-0.1,4.1-0.1,8.2-0.2,12.2
			c-8.7-9.8-21.3-18.6-32.6-24.7C86.5,4.2,88.8,4.2,91,4.3z M83.9,4c-0.1,0.1-0.2,0.3,0,0.4c12.5,7.1,22,17.1,32.8,26.3
			c0.1,0,0.1,0,0.2,0.1c0,2.1-0.1,4.2-0.1,6.3c-2.3-1-5.4-4.1-6.7-5.2c-4.3-3.4-8.5-6.9-12.7-10.5C90.7,15.8,84,10.1,77.7,4
			c-0.2-0.2-0.5,0.1-0.3,0.3c7.4,7.4,15.3,14.4,23.2,21.3c3.8,3.3,7.6,6.7,11.7,9.8c1.1,0.9,2.8,2.5,4.5,3c0,1.7,0,3.3-0.1,5
			c-1.3-2-4.5-4.1-5.9-5.2c-4.2-3.6-8.4-7.3-12.3-11.1c-8.6-8.3-18.6-15-27.5-22.9c-0.1-0.2-0.1-0.5-0.1-0.7
			C75.2,3.6,79.6,3.8,83.9,4z M98.7,189.9C71.8,159.6,47.9,125,25.1,91.5c-0.1-0.2-0.3-0.3-0.5-0.3c0.4-0.2,0.8-0.3,1.2-0.5
			c0.1,0,0.1-0.1,0.1-0.1c0.5,1.1,1.5,1.5,2.8,1.1c13.6,16.9,24.3,36,38.2,52.7c11.8,14.1,27.5,24.8,36,41.5c0,0,0.1,0,0.1,0.1
			C101.6,187.2,100.2,188.6,98.7,189.9z M103.9,185c-5.8-13.8-18.4-24.1-28.7-34.6c-17.5-17.7-29.6-39.8-45.3-59
			c1.8,0,3.6,0.1,5.4,0.2c0.2,0,0.5,0.1,0.7,0.1c18.8,33.4,48.1,59.4,72.4,88.6C106.9,182,105.4,183.6,103.9,185z M109.2,179.6
			C86.4,149.1,57.5,124.2,37,91.9c1.9,0.2,3.7,0.4,5.5,0.7c7.6,15.5,19.9,27.7,31.9,39.8c13.5,13.7,26.3,28.1,38.3,43.1
			C111.6,176.9,110.4,178.2,109.2,179.6z M113.7,174.4c-21.8-27.6-53.2-50.8-70.1-81.6c1.7,0.3,3.3,0.6,5,0.8
			c20.3,27.8,46.2,50.8,67.7,77.6C115.4,172.3,114.6,173.4,113.7,174.4z M117.2,170.1c-20.8-26.8-46-49.7-67.2-76.2
			c1.4,0.3,2.8,0.5,4.3,0.8c-0.1,0.1-0.2,0.3,0,0.5c23.9,20.7,38.2,54.8,66.1,70.6C119.3,167.2,118.3,168.7,117.2,170.1z
			 M121.2,164.7C94.8,145.5,80.3,115.1,55,94.8c2.6,0.5,5.2,0.8,7.8,1c20.7,21.4,39.4,44.7,60.7,65.5
			C122.7,162.4,122,163.6,121.2,164.7z M124.4,160c-20.1-21.4-39.1-44-60.4-64.2c1.9,0.1,3.7,0.1,5.6-0.1c0.5-0.1,0.8-0.3,1.1-0.6
			c9.8,11,18.9,22.5,28.6,33.7c8.1,9.4,17.3,20.2,28.6,26.1C126.7,156.6,125.6,158.3,124.4,160z M128.8,153.5
			C106.2,137,90.9,113.7,71,94.4c0-0.2,0-0.4,0-0.7c0.6,0,1.3-0.3,1.2-1.1c-0.2-1.8-0.4-3.6-0.5-5.4c17.8,22.2,38.5,42.6,59.3,62
			c0.1,0.1,0.2,0.1,0.4,0.1C130.5,150.8,129.7,152.2,128.8,153.5z M132,148.5c0,0,0-0.1,0-0.1c-19.9-21.1-41.1-40.8-60.3-62.6
			c-0.1-2.5-0.2-4.9-0.2-7.4c19.8,23.1,44.3,41.4,64,64.7C134.3,144.8,133.2,146.7,132,148.5z M136.3,141.6
			C117.6,117.4,92,99.5,71.5,76.9c0-1.7,0-3.4,0.1-5.1c14.3,11.4,26.1,25.4,39.3,38c7.3,6.9,15.5,12.7,22.8,19.6
			c1.2,1.1,2.2,2.4,3.3,3.5c0.9,1,1.9,2,2.8,3C138.7,137.8,137.5,139.7,136.3,141.6z M141.1,133.9c-5.9-10.2-20.7-18.3-28.8-25.4
			C98.3,96.1,86.8,81.6,71.6,70.8c0.1-2.6,0.2-5.3,0.4-7.9c18.1,27.2,46.1,47,72.1,66.1C143.1,130.6,142.1,132.2,141.1,133.9z
			 M146.9,124.5c-0.6,1-1.3,2-1.9,3.1c-25.7-20-53.9-39.1-72.9-66c0,0,0,0-0.1,0c0.1-1.5,0.2-3,0.3-4.5
			c14.2,14.4,29.3,27.9,44.4,41.3c9.1,8.1,19,20.9,30.3,25.9c0,0,0,0,0.1,0C147,124.3,147,124.4,146.9,124.5z M147.7,123.2
			C147.7,123.1,147.7,123.1,147.7,123.2c-12-8.7-22.6-20.1-33.7-29.8c-13.9-12.1-27.5-24.5-41.3-36.8c-0.1-0.1-0.2,0-0.3,0
			c0.2-2.9,0.4-5.8,0.6-8.7c13.6,15,31.3,25.7,45.1,40.6c0.1,1,0.1,1.9,0.2,2.9c0,0.5,0.3,0.8,0.6,1.1c-0.2,0.8,0.2,1.7,1.1,1.6
			c0.9-0.1,1.7-0.2,2.6-0.3c9.1,7.7,18.2,16.6,28.6,22.5C150,118.8,148.8,121.2,147.7,123.2z M151.7,115.2c-5.9-4-11.5-8.3-17-12.8
			c-3.6-2.9-7.2-6.2-11.1-8.7c2.2-0.2,4.3-0.3,6.5-0.5c6.6,7.5,14.5,14,22.7,19.7C152.5,113.6,152.1,114.4,151.7,115.2z
			 M153.4,111.8c-7.8-5.9-15.6-11.7-22.5-18.7c2.4-0.2,4.8-0.3,7.1-0.4c5,5.7,11.5,10.1,17.9,14
			C155.1,108.4,154.2,110.1,153.4,111.8z M156.6,105.5c-5.9-4.2-12.3-7.6-17.4-12.8c1.9-0.1,3.9-0.1,5.8-0.2
			c2.3,2.4,4.6,4.8,7.2,6.9c1.7,1.4,3.6,3,5.7,3.9C157.4,104,157,104.7,156.6,105.5z M158.7,101.8c-2.1-1.3-4.3-2.5-6.4-4.1
			c-2.1-1.7-4-3.5-6-5.3c0.3,0,0.6,0,0.9,0c1.9,0,3.8,0,5.8,0.1c2.3,2.3,4.9,4.5,7.6,6.2C159.9,99.7,159.3,100.7,158.7,101.8z
			 M161.6,97.3c-2.1-1.6-4.4-3.1-6.5-4.7c3.6,0.2,7.3,0.3,10.7-0.1C164.4,93.8,163,95.4,161.6,97.3z"/>
	</g>
</g>
</svg>
