<?xml version="1.0" encoding="utf-8"?>
<!-- Generator: Adobe Illustrator 18.0.0, SVG Export Plug-In . SVG Version: 6.00 Build 0)  -->
<!DOCTYPE svg PUBLIC "-//W3C//DTD SVG 1.1//EN" "http://www.w3.org/Graphics/SVG/1.1/DTD/svg11.dtd">
<svg version="1.1" id="Capa_1" xmlns="http://www.w3.org/2000/svg" xmlns:xlink="http://www.w3.org/1999/xlink" x="0px" y="0px"
	 viewBox="0 195.8 612 400.3" enable-background="new 0 195.8 612 400.3" xml:space="preserve">
<path id="XMLID_234_" fill="#FFFFFF" d="M580,195.8H32c-17.6,0-32,14.3-32,32v336.4c0,17.7,14.3,32,32,32H580c17.7,0,32-14.3,32-32
	V227.8C612,210.1,597.7,195.8,580,195.8z M559.1,513.1c8.7,7.2,9.9,20.1,2.7,28.7c-4,4.9-9.9,7.4-15.7,7.4c-4.6,0-9.2-1.5-13-4.7
	L389.2,425.1L319,483.3c-3.8,3.1-8.4,4.7-13,4.7c-4.6,0-9.3-1.6-13-4.7l-70.1-58.2L79,544.5c-8.7,7.2-21.5,6-28.7-2.7
	c-7.2-8.7-6-21.5,2.7-28.7l138-114.5L52.9,284c-8.7-7.2-9.9-20.1-2.7-28.7c7.2-8.7,20.1-9.9,28.7-2.7l227,188.4l227-188.4
	c8.7-7.2,21.5-6,28.7,2.7c7.2,8.7,6,21.5-2.7,28.7l-138,114.5L559.1,513.1z"/>
</svg>
