<?xml version="1.0" encoding="utf-8"?>
<!-- Generator: Adobe Illustrator 18.0.0, SVG Export Plug-In . SVG Version: 6.00 Build 0)  -->
<!DOCTYPE svg PUBLIC "-//W3C//DTD SVG 1.1//EN" "http://www.w3.org/Graphics/SVG/1.1/DTD/svg11.dtd">
<svg version="1.1" id="Layer_1" xmlns="http://www.w3.org/2000/svg" xmlns:xlink="http://www.w3.org/1999/xlink" x="0px" y="0px"
	 viewBox="0 0 17 15.6" enable-background="new 0 0 17 15.6" xml:space="preserve">
<path fill="#FFFFFF" d="M3.7,15.6H0.4V5h3.3V15.6z M2,3.7L2,3.7c-1.2,0-2-0.8-2-1.8C0,0.8,0.8,0,2,0c1.2,0,2,0.8,2,1.8
	C4,2.9,3.2,3.7,2,3.7z M17,15.6h-3.8v-5.5c0-1.4-0.6-2.4-1.9-2.4c-1,0-1.5,0.7-1.8,1.3C9.5,9.2,9.5,9.6,9.5,9.9v5.7H5.8
	c0,0,0-9.7,0-10.6h3.7v1.7c0.2-0.7,1.4-1.8,3.3-1.8c2.4,0,4.2,1.5,4.2,4.8V15.6z"/>
</svg>
